<mxfile host="app.diagrams.net" agent="Mozilla/5.0 (Windows NT 10.0; Win64; x64; rv:132.0) Gecko/20100101 Firefox/132.0" version="24.8.3">
  <diagram name="Page-1" id="CY1jq0GFaB96p1GY_FJx">
    <mxGraphModel dx="2049" dy="1036" grid="1" gridSize="10" guides="1" tooltips="1" connect="1" arrows="1" fold="1" page="1" pageScale="1" pageWidth="1400" pageHeight="850" math="0" shadow="0">
      <root>
        <mxCell id="0" />
        <mxCell id="1" parent="0" />
        <mxCell id="h_acLS0yPJgQxfZrvL9m-3" value="" style="edgeStyle=orthogonalEdgeStyle;rounded=0;orthogonalLoop=1;jettySize=auto;html=1;curved=0;" edge="1" parent="1" source="h_acLS0yPJgQxfZrvL9m-1" target="h_acLS0yPJgQxfZrvL9m-2">
          <mxGeometry relative="1" as="geometry" />
        </mxCell>
        <mxCell id="h_acLS0yPJgQxfZrvL9m-1" value="" style="html=1;points=[[0,0,0,0,5],[0,1,0,0,-5],[1,0,0,0,5],[1,1,0,0,-5]];perimeter=orthogonalPerimeter;outlineConnect=0;targetShapes=umlLifeline;portConstraint=eastwest;newEdgeStyle={&quot;curved&quot;:0,&quot;rounded&quot;:0};fillColor=#000000;" vertex="1" parent="1">
          <mxGeometry x="70" y="155" width="10" height="80" as="geometry" />
        </mxCell>
        <mxCell id="h_acLS0yPJgQxfZrvL9m-5" value="" style="edgeStyle=orthogonalEdgeStyle;rounded=0;orthogonalLoop=1;jettySize=auto;html=1;" edge="1" parent="1" source="h_acLS0yPJgQxfZrvL9m-2" target="h_acLS0yPJgQxfZrvL9m-4">
          <mxGeometry relative="1" as="geometry" />
        </mxCell>
        <mxCell id="h_acLS0yPJgQxfZrvL9m-2" value="" style="ellipse;whiteSpace=wrap;html=1;aspect=fixed;" vertex="1" parent="1">
          <mxGeometry x="150" y="155" width="80" height="80" as="geometry" />
        </mxCell>
        <mxCell id="h_acLS0yPJgQxfZrvL9m-7" value="" style="edgeStyle=orthogonalEdgeStyle;rounded=0;orthogonalLoop=1;jettySize=auto;html=1;curved=0;" edge="1" parent="1" source="h_acLS0yPJgQxfZrvL9m-4" target="h_acLS0yPJgQxfZrvL9m-6">
          <mxGeometry relative="1" as="geometry" />
        </mxCell>
        <mxCell id="h_acLS0yPJgQxfZrvL9m-4" value="" style="html=1;points=[[0,0,0,0,5],[0,1,0,0,-5],[1,0,0,0,5],[1,1,0,0,-5]];perimeter=orthogonalPerimeter;outlineConnect=0;targetShapes=umlLifeline;portConstraint=eastwest;newEdgeStyle={&quot;curved&quot;:0,&quot;rounded&quot;:0};fillColor=#000000;" vertex="1" parent="1">
          <mxGeometry x="300" y="155" width="10" height="80" as="geometry" />
        </mxCell>
        <mxCell id="h_acLS0yPJgQxfZrvL9m-9" value="" style="edgeStyle=orthogonalEdgeStyle;rounded=0;orthogonalLoop=1;jettySize=auto;html=1;" edge="1" parent="1" source="h_acLS0yPJgQxfZrvL9m-6" target="h_acLS0yPJgQxfZrvL9m-8">
          <mxGeometry relative="1" as="geometry" />
        </mxCell>
        <mxCell id="h_acLS0yPJgQxfZrvL9m-6" value="" style="ellipse;whiteSpace=wrap;html=1;aspect=fixed;" vertex="1" parent="1">
          <mxGeometry x="380" y="155" width="80" height="80" as="geometry" />
        </mxCell>
        <mxCell id="h_acLS0yPJgQxfZrvL9m-15" style="edgeStyle=orthogonalEdgeStyle;rounded=0;orthogonalLoop=1;jettySize=auto;html=1;curved=0;entryX=1;entryY=0.375;entryDx=0;entryDy=0;entryPerimeter=0;" edge="1" parent="1" source="h_acLS0yPJgQxfZrvL9m-8" target="h_acLS0yPJgQxfZrvL9m-10">
          <mxGeometry relative="1" as="geometry">
            <Array as="points">
              <mxPoint x="570" y="215" />
              <mxPoint x="570" y="325" />
            </Array>
          </mxGeometry>
        </mxCell>
        <mxCell id="h_acLS0yPJgQxfZrvL9m-16" style="edgeStyle=orthogonalEdgeStyle;rounded=0;orthogonalLoop=1;jettySize=auto;html=1;curved=0;" edge="1" parent="1" source="h_acLS0yPJgQxfZrvL9m-8">
          <mxGeometry relative="1" as="geometry">
            <mxPoint x="460" y="315" as="targetPoint" />
            <Array as="points">
              <mxPoint x="560" y="225" />
              <mxPoint x="560" y="315" />
              <mxPoint x="460" y="315" />
            </Array>
          </mxGeometry>
        </mxCell>
        <mxCell id="h_acLS0yPJgQxfZrvL9m-20" value="" style="edgeStyle=orthogonalEdgeStyle;rounded=0;orthogonalLoop=1;jettySize=auto;html=1;curved=0;" edge="1" parent="1" source="h_acLS0yPJgQxfZrvL9m-8" target="h_acLS0yPJgQxfZrvL9m-17">
          <mxGeometry relative="1" as="geometry" />
        </mxCell>
        <mxCell id="h_acLS0yPJgQxfZrvL9m-8" value="" style="html=1;points=[[0,0,0,0,5],[0,1,0,0,-5],[1,0,0,0,5],[1,1,0,0,-5]];perimeter=orthogonalPerimeter;outlineConnect=0;targetShapes=umlLifeline;portConstraint=eastwest;newEdgeStyle={&quot;curved&quot;:0,&quot;rounded&quot;:0};fillColor=#000000;" vertex="1" parent="1">
          <mxGeometry x="530" y="155" width="10" height="80" as="geometry" />
        </mxCell>
        <mxCell id="h_acLS0yPJgQxfZrvL9m-10" value="" style="ellipse;whiteSpace=wrap;html=1;aspect=fixed;" vertex="1" parent="1">
          <mxGeometry x="380" y="295" width="80" height="80" as="geometry" />
        </mxCell>
        <mxCell id="h_acLS0yPJgQxfZrvL9m-11" value="" style="ellipse;whiteSpace=wrap;html=1;aspect=fixed;fillColor=#000000;" vertex="1" parent="1">
          <mxGeometry x="390" y="325" width="20" height="20" as="geometry" />
        </mxCell>
        <mxCell id="h_acLS0yPJgQxfZrvL9m-12" value="" style="ellipse;whiteSpace=wrap;html=1;aspect=fixed;fillColor=#000000;" vertex="1" parent="1">
          <mxGeometry x="410" y="305" width="20" height="20" as="geometry" />
        </mxCell>
        <mxCell id="h_acLS0yPJgQxfZrvL9m-13" style="edgeStyle=orthogonalEdgeStyle;rounded=0;orthogonalLoop=1;jettySize=auto;html=1;entryX=0;entryY=1;entryDx=0;entryDy=-5;entryPerimeter=0;" edge="1" parent="1" source="h_acLS0yPJgQxfZrvL9m-10" target="h_acLS0yPJgQxfZrvL9m-4">
          <mxGeometry relative="1" as="geometry">
            <Array as="points">
              <mxPoint x="280" y="315" />
              <mxPoint x="280" y="230" />
            </Array>
          </mxGeometry>
        </mxCell>
        <mxCell id="h_acLS0yPJgQxfZrvL9m-14" style="edgeStyle=orthogonalEdgeStyle;rounded=0;orthogonalLoop=1;jettySize=auto;html=1;" edge="1" parent="1" source="h_acLS0yPJgQxfZrvL9m-10">
          <mxGeometry relative="1" as="geometry">
            <mxPoint x="300" y="215" as="targetPoint" />
            <Array as="points">
              <mxPoint x="270" y="325" />
              <mxPoint x="270" y="215" />
            </Array>
          </mxGeometry>
        </mxCell>
        <mxCell id="h_acLS0yPJgQxfZrvL9m-83" style="edgeStyle=orthogonalEdgeStyle;rounded=0;orthogonalLoop=1;jettySize=auto;html=1;" edge="1" parent="1" source="h_acLS0yPJgQxfZrvL9m-17" target="h_acLS0yPJgQxfZrvL9m-35">
          <mxGeometry relative="1" as="geometry" />
        </mxCell>
        <mxCell id="h_acLS0yPJgQxfZrvL9m-84" style="edgeStyle=orthogonalEdgeStyle;rounded=0;orthogonalLoop=1;jettySize=auto;html=1;" edge="1" parent="1" source="h_acLS0yPJgQxfZrvL9m-17" target="h_acLS0yPJgQxfZrvL9m-21">
          <mxGeometry relative="1" as="geometry">
            <Array as="points">
              <mxPoint x="730" y="375" />
              <mxPoint x="730" y="195" />
            </Array>
          </mxGeometry>
        </mxCell>
        <mxCell id="h_acLS0yPJgQxfZrvL9m-85" style="edgeStyle=orthogonalEdgeStyle;rounded=0;orthogonalLoop=1;jettySize=auto;html=1;" edge="1" parent="1" source="h_acLS0yPJgQxfZrvL9m-17" target="h_acLS0yPJgQxfZrvL9m-44">
          <mxGeometry relative="1" as="geometry">
            <Array as="points">
              <mxPoint x="740" y="415" />
              <mxPoint x="740" y="735" />
            </Array>
          </mxGeometry>
        </mxCell>
        <mxCell id="h_acLS0yPJgQxfZrvL9m-17" value="" style="ellipse;whiteSpace=wrap;html=1;aspect=fixed;" vertex="1" parent="1">
          <mxGeometry x="630" y="360" width="80" height="80" as="geometry" />
        </mxCell>
        <mxCell id="h_acLS0yPJgQxfZrvL9m-18" value="" style="ellipse;whiteSpace=wrap;html=1;aspect=fixed;fillColor=#000000;" vertex="1" parent="1">
          <mxGeometry x="430" y="325" width="20" height="20" as="geometry" />
        </mxCell>
        <mxCell id="h_acLS0yPJgQxfZrvL9m-19" value="" style="ellipse;whiteSpace=wrap;html=1;aspect=fixed;fillColor=#000000;" vertex="1" parent="1">
          <mxGeometry x="410" y="345" width="20" height="20" as="geometry" />
        </mxCell>
        <mxCell id="h_acLS0yPJgQxfZrvL9m-27" value="" style="edgeStyle=orthogonalEdgeStyle;rounded=0;orthogonalLoop=1;jettySize=auto;html=1;curved=0;" edge="1" parent="1" source="h_acLS0yPJgQxfZrvL9m-21" target="h_acLS0yPJgQxfZrvL9m-26">
          <mxGeometry relative="1" as="geometry" />
        </mxCell>
        <mxCell id="h_acLS0yPJgQxfZrvL9m-21" value="" style="html=1;points=[[0,0,0,0,5],[0,1,0,0,-5],[1,0,0,0,5],[1,1,0,0,-5]];perimeter=orthogonalPerimeter;outlineConnect=0;targetShapes=umlLifeline;portConstraint=eastwest;newEdgeStyle={&quot;curved&quot;:0,&quot;rounded&quot;:0};fillColor=#000000;" vertex="1" parent="1">
          <mxGeometry x="870" y="155" width="10" height="80" as="geometry" />
        </mxCell>
        <mxCell id="h_acLS0yPJgQxfZrvL9m-31" value="" style="edgeStyle=orthogonalEdgeStyle;rounded=0;orthogonalLoop=1;jettySize=auto;html=1;" edge="1" parent="1" source="h_acLS0yPJgQxfZrvL9m-26" target="h_acLS0yPJgQxfZrvL9m-30">
          <mxGeometry relative="1" as="geometry" />
        </mxCell>
        <mxCell id="h_acLS0yPJgQxfZrvL9m-26" value="" style="ellipse;whiteSpace=wrap;html=1;aspect=fixed;" vertex="1" parent="1">
          <mxGeometry x="940" y="155" width="80" height="80" as="geometry" />
        </mxCell>
        <mxCell id="h_acLS0yPJgQxfZrvL9m-28" value="" style="ellipse;whiteSpace=wrap;html=1;aspect=fixed;" vertex="1" parent="1">
          <mxGeometry x="940" y="35" width="80" height="80" as="geometry" />
        </mxCell>
        <mxCell id="h_acLS0yPJgQxfZrvL9m-29" value="" style="ellipse;whiteSpace=wrap;html=1;aspect=fixed;fillColor=#000000;" vertex="1" parent="1">
          <mxGeometry x="970" y="65" width="20" height="20" as="geometry" />
        </mxCell>
        <mxCell id="h_acLS0yPJgQxfZrvL9m-32" style="edgeStyle=orthogonalEdgeStyle;rounded=0;orthogonalLoop=1;jettySize=auto;html=1;curved=0;entryX=1;entryY=0.5;entryDx=0;entryDy=0;" edge="1" parent="1" source="h_acLS0yPJgQxfZrvL9m-30" target="h_acLS0yPJgQxfZrvL9m-28">
          <mxGeometry relative="1" as="geometry">
            <Array as="points">
              <mxPoint x="1100" y="165" />
              <mxPoint x="1100" y="75" />
            </Array>
          </mxGeometry>
        </mxCell>
        <mxCell id="h_acLS0yPJgQxfZrvL9m-57" style="edgeStyle=orthogonalEdgeStyle;rounded=0;orthogonalLoop=1;jettySize=auto;html=1;curved=0;entryX=0;entryY=0;entryDx=0;entryDy=0;" edge="1" parent="1" source="h_acLS0yPJgQxfZrvL9m-30" target="h_acLS0yPJgQxfZrvL9m-52">
          <mxGeometry relative="1" as="geometry" />
        </mxCell>
        <mxCell id="h_acLS0yPJgQxfZrvL9m-30" value="" style="html=1;points=[[0,0,0,0,5],[0,1,0,0,-5],[1,0,0,0,5],[1,1,0,0,-5]];perimeter=orthogonalPerimeter;outlineConnect=0;targetShapes=umlLifeline;portConstraint=eastwest;newEdgeStyle={&quot;curved&quot;:0,&quot;rounded&quot;:0};fillColor=#000000;" vertex="1" parent="1">
          <mxGeometry x="1070" y="155" width="10" height="80" as="geometry" />
        </mxCell>
        <mxCell id="h_acLS0yPJgQxfZrvL9m-33" style="edgeStyle=orthogonalEdgeStyle;rounded=0;orthogonalLoop=1;jettySize=auto;html=1;entryX=0;entryY=0;entryDx=0;entryDy=5;entryPerimeter=0;" edge="1" parent="1" source="h_acLS0yPJgQxfZrvL9m-28" target="h_acLS0yPJgQxfZrvL9m-21">
          <mxGeometry relative="1" as="geometry">
            <Array as="points">
              <mxPoint x="850" y="75" />
              <mxPoint x="850" y="160" />
            </Array>
          </mxGeometry>
        </mxCell>
        <mxCell id="h_acLS0yPJgQxfZrvL9m-34" value="" style="edgeStyle=orthogonalEdgeStyle;rounded=0;orthogonalLoop=1;jettySize=auto;html=1;curved=0;" edge="1" parent="1" source="h_acLS0yPJgQxfZrvL9m-35" target="h_acLS0yPJgQxfZrvL9m-37">
          <mxGeometry relative="1" as="geometry" />
        </mxCell>
        <mxCell id="h_acLS0yPJgQxfZrvL9m-35" value="" style="html=1;points=[[0,0,0,0,5],[0,1,0,0,-5],[1,0,0,0,5],[1,1,0,0,-5]];perimeter=orthogonalPerimeter;outlineConnect=0;targetShapes=umlLifeline;portConstraint=eastwest;newEdgeStyle={&quot;curved&quot;:0,&quot;rounded&quot;:0};fillColor=#000000;" vertex="1" parent="1">
          <mxGeometry x="869.94" y="425" width="10" height="80" as="geometry" />
        </mxCell>
        <mxCell id="h_acLS0yPJgQxfZrvL9m-36" value="" style="edgeStyle=orthogonalEdgeStyle;rounded=0;orthogonalLoop=1;jettySize=auto;html=1;" edge="1" parent="1" source="h_acLS0yPJgQxfZrvL9m-37" target="h_acLS0yPJgQxfZrvL9m-41">
          <mxGeometry relative="1" as="geometry" />
        </mxCell>
        <mxCell id="h_acLS0yPJgQxfZrvL9m-37" value="" style="ellipse;whiteSpace=wrap;html=1;aspect=fixed;" vertex="1" parent="1">
          <mxGeometry x="939.94" y="425" width="80" height="80" as="geometry" />
        </mxCell>
        <mxCell id="h_acLS0yPJgQxfZrvL9m-38" value="" style="ellipse;whiteSpace=wrap;html=1;aspect=fixed;" vertex="1" parent="1">
          <mxGeometry x="939.94" y="305" width="80" height="80" as="geometry" />
        </mxCell>
        <mxCell id="h_acLS0yPJgQxfZrvL9m-39" value="" style="ellipse;whiteSpace=wrap;html=1;aspect=fixed;fillColor=#000000;" vertex="1" parent="1">
          <mxGeometry x="969.94" y="335" width="20" height="20" as="geometry" />
        </mxCell>
        <mxCell id="h_acLS0yPJgQxfZrvL9m-40" style="edgeStyle=orthogonalEdgeStyle;rounded=0;orthogonalLoop=1;jettySize=auto;html=1;curved=0;entryX=1;entryY=0.5;entryDx=0;entryDy=0;" edge="1" parent="1" source="h_acLS0yPJgQxfZrvL9m-41" target="h_acLS0yPJgQxfZrvL9m-38">
          <mxGeometry relative="1" as="geometry">
            <Array as="points">
              <mxPoint x="1099.94" y="435" />
              <mxPoint x="1099.94" y="345" />
            </Array>
          </mxGeometry>
        </mxCell>
        <mxCell id="h_acLS0yPJgQxfZrvL9m-55" style="edgeStyle=orthogonalEdgeStyle;rounded=0;orthogonalLoop=1;jettySize=auto;html=1;curved=0;entryX=0;entryY=0.5;entryDx=0;entryDy=0;" edge="1" parent="1" source="h_acLS0yPJgQxfZrvL9m-41" target="h_acLS0yPJgQxfZrvL9m-52">
          <mxGeometry relative="1" as="geometry" />
        </mxCell>
        <mxCell id="h_acLS0yPJgQxfZrvL9m-41" value="" style="html=1;points=[[0,0,0,0,5],[0,1,0,0,-5],[1,0,0,0,5],[1,1,0,0,-5]];perimeter=orthogonalPerimeter;outlineConnect=0;targetShapes=umlLifeline;portConstraint=eastwest;newEdgeStyle={&quot;curved&quot;:0,&quot;rounded&quot;:0};fillColor=#000000;" vertex="1" parent="1">
          <mxGeometry x="1069.94" y="425" width="10" height="80" as="geometry" />
        </mxCell>
        <mxCell id="h_acLS0yPJgQxfZrvL9m-42" style="edgeStyle=orthogonalEdgeStyle;rounded=0;orthogonalLoop=1;jettySize=auto;html=1;entryX=0;entryY=0;entryDx=0;entryDy=5;entryPerimeter=0;" edge="1" parent="1" source="h_acLS0yPJgQxfZrvL9m-38" target="h_acLS0yPJgQxfZrvL9m-35">
          <mxGeometry relative="1" as="geometry">
            <Array as="points">
              <mxPoint x="849.94" y="345" />
              <mxPoint x="849.94" y="430" />
            </Array>
          </mxGeometry>
        </mxCell>
        <mxCell id="h_acLS0yPJgQxfZrvL9m-43" value="" style="edgeStyle=orthogonalEdgeStyle;rounded=0;orthogonalLoop=1;jettySize=auto;html=1;curved=0;" edge="1" parent="1" source="h_acLS0yPJgQxfZrvL9m-44" target="h_acLS0yPJgQxfZrvL9m-46">
          <mxGeometry relative="1" as="geometry" />
        </mxCell>
        <mxCell id="h_acLS0yPJgQxfZrvL9m-44" value="" style="html=1;points=[[0,0,0,0,5],[0,1,0,0,-5],[1,0,0,0,5],[1,1,0,0,-5]];perimeter=orthogonalPerimeter;outlineConnect=0;targetShapes=umlLifeline;portConstraint=eastwest;newEdgeStyle={&quot;curved&quot;:0,&quot;rounded&quot;:0};fillColor=#000000;" vertex="1" parent="1">
          <mxGeometry x="870" y="695" width="10" height="80" as="geometry" />
        </mxCell>
        <mxCell id="h_acLS0yPJgQxfZrvL9m-45" value="" style="edgeStyle=orthogonalEdgeStyle;rounded=0;orthogonalLoop=1;jettySize=auto;html=1;" edge="1" parent="1" source="h_acLS0yPJgQxfZrvL9m-46" target="h_acLS0yPJgQxfZrvL9m-50">
          <mxGeometry relative="1" as="geometry" />
        </mxCell>
        <mxCell id="h_acLS0yPJgQxfZrvL9m-46" value="" style="ellipse;whiteSpace=wrap;html=1;aspect=fixed;" vertex="1" parent="1">
          <mxGeometry x="940" y="695" width="80" height="80" as="geometry" />
        </mxCell>
        <mxCell id="h_acLS0yPJgQxfZrvL9m-47" value="" style="ellipse;whiteSpace=wrap;html=1;aspect=fixed;" vertex="1" parent="1">
          <mxGeometry x="940" y="575" width="80" height="80" as="geometry" />
        </mxCell>
        <mxCell id="h_acLS0yPJgQxfZrvL9m-48" value="" style="ellipse;whiteSpace=wrap;html=1;aspect=fixed;fillColor=#000000;" vertex="1" parent="1">
          <mxGeometry x="970" y="605" width="20" height="20" as="geometry" />
        </mxCell>
        <mxCell id="h_acLS0yPJgQxfZrvL9m-49" style="edgeStyle=orthogonalEdgeStyle;rounded=0;orthogonalLoop=1;jettySize=auto;html=1;curved=0;entryX=1;entryY=0.5;entryDx=0;entryDy=0;" edge="1" parent="1" source="h_acLS0yPJgQxfZrvL9m-50" target="h_acLS0yPJgQxfZrvL9m-47">
          <mxGeometry relative="1" as="geometry">
            <Array as="points">
              <mxPoint x="1100" y="705" />
              <mxPoint x="1100" y="615" />
            </Array>
          </mxGeometry>
        </mxCell>
        <mxCell id="h_acLS0yPJgQxfZrvL9m-56" style="edgeStyle=orthogonalEdgeStyle;rounded=0;orthogonalLoop=1;jettySize=auto;html=1;curved=0;entryX=0;entryY=1;entryDx=0;entryDy=0;" edge="1" parent="1" source="h_acLS0yPJgQxfZrvL9m-50" target="h_acLS0yPJgQxfZrvL9m-52">
          <mxGeometry relative="1" as="geometry" />
        </mxCell>
        <mxCell id="h_acLS0yPJgQxfZrvL9m-50" value="" style="html=1;points=[[0,0,0,0,5],[0,1,0,0,-5],[1,0,0,0,5],[1,1,0,0,-5]];perimeter=orthogonalPerimeter;outlineConnect=0;targetShapes=umlLifeline;portConstraint=eastwest;newEdgeStyle={&quot;curved&quot;:0,&quot;rounded&quot;:0};fillColor=#000000;" vertex="1" parent="1">
          <mxGeometry x="1070" y="695" width="10" height="80" as="geometry" />
        </mxCell>
        <mxCell id="h_acLS0yPJgQxfZrvL9m-51" style="edgeStyle=orthogonalEdgeStyle;rounded=0;orthogonalLoop=1;jettySize=auto;html=1;entryX=0;entryY=0;entryDx=0;entryDy=5;entryPerimeter=0;" edge="1" parent="1" source="h_acLS0yPJgQxfZrvL9m-47" target="h_acLS0yPJgQxfZrvL9m-44">
          <mxGeometry relative="1" as="geometry">
            <Array as="points">
              <mxPoint x="850" y="615" />
              <mxPoint x="850" y="700" />
            </Array>
          </mxGeometry>
        </mxCell>
        <mxCell id="h_acLS0yPJgQxfZrvL9m-86" style="edgeStyle=orthogonalEdgeStyle;rounded=0;orthogonalLoop=1;jettySize=auto;html=1;" edge="1" parent="1" source="h_acLS0yPJgQxfZrvL9m-52" target="h_acLS0yPJgQxfZrvL9m-53">
          <mxGeometry relative="1" as="geometry">
            <Array as="points">
              <mxPoint x="1310" y="475" />
              <mxPoint x="1310" y="555" />
            </Array>
          </mxGeometry>
        </mxCell>
        <mxCell id="h_acLS0yPJgQxfZrvL9m-88" style="edgeStyle=orthogonalEdgeStyle;rounded=0;orthogonalLoop=1;jettySize=auto;html=1;" edge="1" parent="1" source="h_acLS0yPJgQxfZrvL9m-52" target="h_acLS0yPJgQxfZrvL9m-54">
          <mxGeometry relative="1" as="geometry">
            <Array as="points">
              <mxPoint x="1310" y="465" />
              <mxPoint x="1310" y="295" />
            </Array>
          </mxGeometry>
        </mxCell>
        <mxCell id="h_acLS0yPJgQxfZrvL9m-52" value="" style="ellipse;whiteSpace=wrap;html=1;aspect=fixed;" vertex="1" parent="1">
          <mxGeometry x="1200" y="425" width="80" height="80" as="geometry" />
        </mxCell>
        <mxCell id="h_acLS0yPJgQxfZrvL9m-53" value="" style="html=1;points=[[0,0,0,0,5],[0,1,0,0,-5],[1,0,0,0,5],[1,1,0,0,-5]];perimeter=orthogonalPerimeter;outlineConnect=0;targetShapes=umlLifeline;portConstraint=eastwest;newEdgeStyle={&quot;curved&quot;:0,&quot;rounded&quot;:0};fillColor=#000000;" vertex="1" parent="1">
          <mxGeometry x="1370" y="515" width="10" height="80" as="geometry" />
        </mxCell>
        <mxCell id="h_acLS0yPJgQxfZrvL9m-54" value="" style="html=1;points=[[0,0,0,0,5],[0,1,0,0,-5],[1,0,0,0,5],[1,1,0,0,-5]];perimeter=orthogonalPerimeter;outlineConnect=0;targetShapes=umlLifeline;portConstraint=eastwest;newEdgeStyle={&quot;curved&quot;:0,&quot;rounded&quot;:0};fillColor=#000000;" vertex="1" parent="1">
          <mxGeometry x="1370" y="255" width="10" height="80" as="geometry" />
        </mxCell>
        <mxCell id="h_acLS0yPJgQxfZrvL9m-60" value="" style="edgeStyle=orthogonalEdgeStyle;rounded=0;orthogonalLoop=1;jettySize=auto;html=1;curved=0;" edge="1" source="h_acLS0yPJgQxfZrvL9m-61" target="h_acLS0yPJgQxfZrvL9m-63" parent="1">
          <mxGeometry relative="1" as="geometry" />
        </mxCell>
        <mxCell id="h_acLS0yPJgQxfZrvL9m-61" value="" style="html=1;points=[[0,0,0,0,5],[0,1,0,0,-5],[1,0,0,0,5],[1,1,0,0,-5]];perimeter=orthogonalPerimeter;outlineConnect=0;targetShapes=umlLifeline;portConstraint=eastwest;newEdgeStyle={&quot;curved&quot;:0,&quot;rounded&quot;:0};fillColor=#000000;" vertex="1" parent="1">
          <mxGeometry x="70" y="495" width="10" height="80" as="geometry" />
        </mxCell>
        <mxCell id="h_acLS0yPJgQxfZrvL9m-62" value="" style="edgeStyle=orthogonalEdgeStyle;rounded=0;orthogonalLoop=1;jettySize=auto;html=1;" edge="1" source="h_acLS0yPJgQxfZrvL9m-63" target="h_acLS0yPJgQxfZrvL9m-65" parent="1">
          <mxGeometry relative="1" as="geometry" />
        </mxCell>
        <mxCell id="h_acLS0yPJgQxfZrvL9m-63" value="" style="ellipse;whiteSpace=wrap;html=1;aspect=fixed;" vertex="1" parent="1">
          <mxGeometry x="150" y="495" width="80" height="80" as="geometry" />
        </mxCell>
        <mxCell id="h_acLS0yPJgQxfZrvL9m-64" value="" style="edgeStyle=orthogonalEdgeStyle;rounded=0;orthogonalLoop=1;jettySize=auto;html=1;curved=0;" edge="1" source="h_acLS0yPJgQxfZrvL9m-65" target="h_acLS0yPJgQxfZrvL9m-67" parent="1">
          <mxGeometry relative="1" as="geometry" />
        </mxCell>
        <mxCell id="h_acLS0yPJgQxfZrvL9m-65" value="" style="html=1;points=[[0,0,0,0,5],[0,1,0,0,-5],[1,0,0,0,5],[1,1,0,0,-5]];perimeter=orthogonalPerimeter;outlineConnect=0;targetShapes=umlLifeline;portConstraint=eastwest;newEdgeStyle={&quot;curved&quot;:0,&quot;rounded&quot;:0};fillColor=#000000;" vertex="1" parent="1">
          <mxGeometry x="300" y="495" width="10" height="80" as="geometry" />
        </mxCell>
        <mxCell id="h_acLS0yPJgQxfZrvL9m-66" value="" style="edgeStyle=orthogonalEdgeStyle;rounded=0;orthogonalLoop=1;jettySize=auto;html=1;" edge="1" source="h_acLS0yPJgQxfZrvL9m-67" target="h_acLS0yPJgQxfZrvL9m-71" parent="1">
          <mxGeometry relative="1" as="geometry" />
        </mxCell>
        <mxCell id="h_acLS0yPJgQxfZrvL9m-67" value="" style="ellipse;whiteSpace=wrap;html=1;aspect=fixed;" vertex="1" parent="1">
          <mxGeometry x="380" y="495" width="80" height="80" as="geometry" />
        </mxCell>
        <mxCell id="h_acLS0yPJgQxfZrvL9m-68" style="edgeStyle=orthogonalEdgeStyle;rounded=0;orthogonalLoop=1;jettySize=auto;html=1;curved=0;entryX=1;entryY=0.375;entryDx=0;entryDy=0;entryPerimeter=0;" edge="1" source="h_acLS0yPJgQxfZrvL9m-71" target="h_acLS0yPJgQxfZrvL9m-72" parent="1">
          <mxGeometry relative="1" as="geometry">
            <Array as="points">
              <mxPoint x="570" y="555" />
              <mxPoint x="570" y="665" />
            </Array>
          </mxGeometry>
        </mxCell>
        <mxCell id="h_acLS0yPJgQxfZrvL9m-69" style="edgeStyle=orthogonalEdgeStyle;rounded=0;orthogonalLoop=1;jettySize=auto;html=1;curved=0;" edge="1" source="h_acLS0yPJgQxfZrvL9m-71" parent="1">
          <mxGeometry relative="1" as="geometry">
            <mxPoint x="460" y="655" as="targetPoint" />
            <Array as="points">
              <mxPoint x="560" y="565" />
              <mxPoint x="560" y="655" />
              <mxPoint x="460" y="655" />
            </Array>
          </mxGeometry>
        </mxCell>
        <mxCell id="h_acLS0yPJgQxfZrvL9m-70" value="" style="edgeStyle=orthogonalEdgeStyle;rounded=0;orthogonalLoop=1;jettySize=auto;html=1;curved=0;entryX=0.5;entryY=1;entryDx=0;entryDy=0;" edge="1" source="h_acLS0yPJgQxfZrvL9m-71" target="h_acLS0yPJgQxfZrvL9m-17" parent="1">
          <mxGeometry relative="1" as="geometry">
            <mxPoint x="610" y="535" as="targetPoint" />
          </mxGeometry>
        </mxCell>
        <mxCell id="h_acLS0yPJgQxfZrvL9m-71" value="" style="html=1;points=[[0,0,0,0,5],[0,1,0,0,-5],[1,0,0,0,5],[1,1,0,0,-5]];perimeter=orthogonalPerimeter;outlineConnect=0;targetShapes=umlLifeline;portConstraint=eastwest;newEdgeStyle={&quot;curved&quot;:0,&quot;rounded&quot;:0};fillColor=#000000;" vertex="1" parent="1">
          <mxGeometry x="530" y="495" width="10" height="80" as="geometry" />
        </mxCell>
        <mxCell id="h_acLS0yPJgQxfZrvL9m-72" value="" style="ellipse;whiteSpace=wrap;html=1;aspect=fixed;" vertex="1" parent="1">
          <mxGeometry x="380" y="635" width="80" height="80" as="geometry" />
        </mxCell>
        <mxCell id="h_acLS0yPJgQxfZrvL9m-73" value="" style="ellipse;whiteSpace=wrap;html=1;aspect=fixed;fillColor=#000000;" vertex="1" parent="1">
          <mxGeometry x="390" y="665" width="20" height="20" as="geometry" />
        </mxCell>
        <mxCell id="h_acLS0yPJgQxfZrvL9m-74" value="" style="ellipse;whiteSpace=wrap;html=1;aspect=fixed;fillColor=#000000;" vertex="1" parent="1">
          <mxGeometry x="410" y="645" width="20" height="20" as="geometry" />
        </mxCell>
        <mxCell id="h_acLS0yPJgQxfZrvL9m-75" style="edgeStyle=orthogonalEdgeStyle;rounded=0;orthogonalLoop=1;jettySize=auto;html=1;entryX=0;entryY=1;entryDx=0;entryDy=-5;entryPerimeter=0;" edge="1" source="h_acLS0yPJgQxfZrvL9m-72" target="h_acLS0yPJgQxfZrvL9m-65" parent="1">
          <mxGeometry relative="1" as="geometry">
            <Array as="points">
              <mxPoint x="280" y="655" />
              <mxPoint x="280" y="570" />
            </Array>
          </mxGeometry>
        </mxCell>
        <mxCell id="h_acLS0yPJgQxfZrvL9m-76" style="edgeStyle=orthogonalEdgeStyle;rounded=0;orthogonalLoop=1;jettySize=auto;html=1;" edge="1" source="h_acLS0yPJgQxfZrvL9m-72" parent="1">
          <mxGeometry relative="1" as="geometry">
            <mxPoint x="300" y="555" as="targetPoint" />
            <Array as="points">
              <mxPoint x="270" y="665" />
              <mxPoint x="270" y="555" />
            </Array>
          </mxGeometry>
        </mxCell>
        <mxCell id="h_acLS0yPJgQxfZrvL9m-78" value="" style="ellipse;whiteSpace=wrap;html=1;aspect=fixed;fillColor=#000000;" vertex="1" parent="1">
          <mxGeometry x="430" y="665" width="20" height="20" as="geometry" />
        </mxCell>
        <mxCell id="h_acLS0yPJgQxfZrvL9m-79" value="" style="ellipse;whiteSpace=wrap;html=1;aspect=fixed;fillColor=#000000;" vertex="1" parent="1">
          <mxGeometry x="410" y="685" width="20" height="20" as="geometry" />
        </mxCell>
        <mxCell id="h_acLS0yPJgQxfZrvL9m-89" value="&lt;div&gt;Persona ingresa&amp;nbsp;&lt;/div&gt;&lt;div&gt;por calle 1&lt;br&gt;&lt;/div&gt;" style="text;html=1;align=center;verticalAlign=middle;resizable=0;points=[];autosize=1;strokeColor=none;fillColor=none;" vertex="1" parent="1">
          <mxGeometry x="15" y="105" width="120" height="40" as="geometry" />
        </mxCell>
        <mxCell id="h_acLS0yPJgQxfZrvL9m-90" value="&lt;div&gt;Persona esperando&lt;/div&gt;&lt;div&gt;inspeccion de calle 1&lt;br&gt;&lt;/div&gt;" style="text;html=1;align=center;verticalAlign=middle;resizable=0;points=[];autosize=1;strokeColor=none;fillColor=none;" vertex="1" parent="1">
          <mxGeometry x="120" y="235" width="140" height="40" as="geometry" />
        </mxCell>
        <mxCell id="h_acLS0yPJgQxfZrvL9m-91" value="&lt;div&gt;Inspectores diponibles&lt;/div&gt;&lt;div&gt;en calle 1&lt;br&gt;&lt;/div&gt;" style="text;html=1;align=center;verticalAlign=middle;resizable=0;points=[];autosize=1;strokeColor=none;fillColor=none;" vertex="1" parent="1">
          <mxGeometry x="345" y="375" width="150" height="40" as="geometry" />
        </mxCell>
        <mxCell id="h_acLS0yPJgQxfZrvL9m-92" value="&lt;div&gt;Inspeccionando personas&lt;/div&gt;&lt;div&gt;en calle 1&lt;br&gt;&lt;/div&gt;" style="text;html=1;align=center;verticalAlign=middle;resizable=0;points=[];autosize=1;strokeColor=none;fillColor=none;" vertex="1" parent="1">
          <mxGeometry x="335" y="115" width="170" height="40" as="geometry" />
        </mxCell>
        <mxCell id="h_acLS0yPJgQxfZrvL9m-93" value="&lt;div&gt;Persona ingresa al recital desde&lt;/div&gt;&lt;div&gt;calle 1&lt;br&gt;&lt;/div&gt;" style="text;html=1;align=center;verticalAlign=middle;resizable=0;points=[];autosize=1;strokeColor=none;fillColor=none;" vertex="1" parent="1">
          <mxGeometry x="505" y="135" width="200" height="40" as="geometry" />
        </mxCell>
        <mxCell id="h_acLS0yPJgQxfZrvL9m-94" value="&lt;div&gt;Persona ingresa&amp;nbsp;&lt;/div&gt;&lt;div&gt;por calle 2&lt;br&gt;&lt;/div&gt;" style="text;html=1;align=center;verticalAlign=middle;resizable=0;points=[];autosize=1;strokeColor=none;fillColor=none;" vertex="1" parent="1">
          <mxGeometry x="15" y="445" width="120" height="40" as="geometry" />
        </mxCell>
        <mxCell id="h_acLS0yPJgQxfZrvL9m-95" value="&lt;div&gt;Persona esperando&lt;/div&gt;&lt;div&gt;inspeccion de calle 2&lt;br&gt;&lt;/div&gt;" style="text;html=1;align=center;verticalAlign=middle;resizable=0;points=[];autosize=1;strokeColor=none;fillColor=none;" vertex="1" parent="1">
          <mxGeometry x="120" y="575" width="140" height="40" as="geometry" />
        </mxCell>
        <mxCell id="h_acLS0yPJgQxfZrvL9m-96" value="&lt;div&gt;Inspectores diponibles&lt;/div&gt;&lt;div&gt;en calle 2&lt;br&gt;&lt;/div&gt;" style="text;html=1;align=center;verticalAlign=middle;resizable=0;points=[];autosize=1;strokeColor=none;fillColor=none;" vertex="1" parent="1">
          <mxGeometry x="345" y="715" width="150" height="40" as="geometry" />
        </mxCell>
        <mxCell id="h_acLS0yPJgQxfZrvL9m-97" value="&lt;div&gt;Inspeccionando personas&lt;/div&gt;&lt;div&gt;en calle 2&lt;br&gt;&lt;/div&gt;" style="text;html=1;align=center;verticalAlign=middle;resizable=0;points=[];autosize=1;strokeColor=none;fillColor=none;" vertex="1" parent="1">
          <mxGeometry x="335" y="455" width="170" height="40" as="geometry" />
        </mxCell>
        <mxCell id="h_acLS0yPJgQxfZrvL9m-98" value="&lt;div&gt;Persona ingresa al recital desde&lt;/div&gt;&lt;div&gt;calle 2&lt;br&gt;&lt;/div&gt;" style="text;html=1;align=center;verticalAlign=middle;resizable=0;points=[];autosize=1;strokeColor=none;fillColor=none;" vertex="1" parent="1">
          <mxGeometry x="505" y="475" width="200" height="40" as="geometry" />
        </mxCell>
        <mxCell id="h_acLS0yPJgQxfZrvL9m-99" value="&lt;div&gt;Personas&lt;/div&gt;&lt;div&gt;esperando para&lt;/div&gt;&lt;div&gt;ingresar a la&lt;/div&gt;&lt;div&gt;puerta&lt;br&gt;&lt;/div&gt;" style="text;html=1;align=center;verticalAlign=middle;resizable=0;points=[];autosize=1;strokeColor=none;fillColor=none;" vertex="1" parent="1">
          <mxGeometry x="530" y="365" width="110" height="70" as="geometry" />
        </mxCell>
        <mxCell id="h_acLS0yPJgQxfZrvL9m-100" value="&lt;div&gt;Persona ingresa&lt;/div&gt;&lt;div&gt;a puerta 1&lt;br&gt;&lt;/div&gt;" style="text;html=1;align=center;verticalAlign=middle;resizable=0;points=[];autosize=1;strokeColor=none;fillColor=none;" vertex="1" parent="1">
          <mxGeometry x="814.94" y="235" width="120" height="40" as="geometry" />
        </mxCell>
        <mxCell id="h_acLS0yPJgQxfZrvL9m-101" value="&lt;div&gt;Inspeccion de&lt;/div&gt;&lt;div&gt;metales de puerta&lt;/div&gt;&lt;div&gt;1&lt;br&gt;&lt;/div&gt;" style="text;html=1;align=center;verticalAlign=middle;resizable=0;points=[];autosize=1;strokeColor=none;fillColor=none;" vertex="1" parent="1">
          <mxGeometry x="920" y="225" width="120" height="60" as="geometry" />
        </mxCell>
        <mxCell id="h_acLS0yPJgQxfZrvL9m-102" value="&lt;div&gt;Persona sale&lt;/div&gt;&lt;div&gt;de puerta 1&lt;br&gt;&lt;/div&gt;" style="text;html=1;align=center;verticalAlign=middle;resizable=0;points=[];autosize=1;strokeColor=none;fillColor=none;" vertex="1" parent="1">
          <mxGeometry x="1069.94" y="225" width="100" height="40" as="geometry" />
        </mxCell>
        <mxCell id="h_acLS0yPJgQxfZrvL9m-103" value="Detector 1 disponible" style="text;html=1;align=center;verticalAlign=middle;resizable=0;points=[];autosize=1;strokeColor=none;fillColor=none;" vertex="1" parent="1">
          <mxGeometry x="910" width="140" height="30" as="geometry" />
        </mxCell>
        <mxCell id="h_acLS0yPJgQxfZrvL9m-104" value="&lt;div&gt;Persona ingresa&lt;/div&gt;&lt;div&gt;a puerta 2&lt;br&gt;&lt;/div&gt;" style="text;html=1;align=center;verticalAlign=middle;resizable=0;points=[];autosize=1;strokeColor=none;fillColor=none;" vertex="1" parent="1">
          <mxGeometry x="814.94" y="510" width="120" height="40" as="geometry" />
        </mxCell>
        <mxCell id="h_acLS0yPJgQxfZrvL9m-105" value="&lt;div&gt;Inspeccion de&lt;/div&gt;&lt;div&gt;metales de puerta&lt;/div&gt;&lt;div&gt;2&lt;br&gt;&lt;/div&gt;" style="text;html=1;align=center;verticalAlign=middle;resizable=0;points=[];autosize=1;strokeColor=none;fillColor=none;" vertex="1" parent="1">
          <mxGeometry x="920" y="500" width="120" height="60" as="geometry" />
        </mxCell>
        <mxCell id="h_acLS0yPJgQxfZrvL9m-106" value="&lt;div&gt;Persona sale&lt;/div&gt;&lt;div&gt;de puerta 2&lt;br&gt;&lt;/div&gt;" style="text;html=1;align=center;verticalAlign=middle;resizable=0;points=[];autosize=1;strokeColor=none;fillColor=none;" vertex="1" parent="1">
          <mxGeometry x="1069.94" y="500" width="100" height="40" as="geometry" />
        </mxCell>
        <mxCell id="h_acLS0yPJgQxfZrvL9m-107" value="Detector 2 disponible" style="text;html=1;align=center;verticalAlign=middle;resizable=0;points=[];autosize=1;strokeColor=none;fillColor=none;" vertex="1" parent="1">
          <mxGeometry x="910" y="275" width="140" height="30" as="geometry" />
        </mxCell>
        <mxCell id="h_acLS0yPJgQxfZrvL9m-108" value="&lt;div&gt;Persona ingresa&lt;/div&gt;&lt;div&gt;a puerta 3&lt;br&gt;&lt;/div&gt;" style="text;html=1;align=center;verticalAlign=middle;resizable=0;points=[];autosize=1;strokeColor=none;fillColor=none;" vertex="1" parent="1">
          <mxGeometry x="814.94" y="785" width="120" height="40" as="geometry" />
        </mxCell>
        <mxCell id="h_acLS0yPJgQxfZrvL9m-109" value="&lt;div&gt;Inspeccion de&lt;/div&gt;&lt;div&gt;metales de puerta&lt;/div&gt;&lt;div&gt;3&lt;br&gt;&lt;/div&gt;" style="text;html=1;align=center;verticalAlign=middle;resizable=0;points=[];autosize=1;strokeColor=none;fillColor=none;" vertex="1" parent="1">
          <mxGeometry x="920" y="775" width="120" height="60" as="geometry" />
        </mxCell>
        <mxCell id="h_acLS0yPJgQxfZrvL9m-110" value="&lt;div&gt;Persona sale&lt;/div&gt;&lt;div&gt;de puerta 3&lt;br&gt;&lt;/div&gt;" style="text;html=1;align=center;verticalAlign=middle;resizable=0;points=[];autosize=1;strokeColor=none;fillColor=none;" vertex="1" parent="1">
          <mxGeometry x="1069.94" y="775" width="100" height="40" as="geometry" />
        </mxCell>
        <mxCell id="h_acLS0yPJgQxfZrvL9m-111" value="Detector 3 disponible" style="text;html=1;align=center;verticalAlign=middle;resizable=0;points=[];autosize=1;strokeColor=none;fillColor=none;" vertex="1" parent="1">
          <mxGeometry x="910" y="550" width="140" height="30" as="geometry" />
        </mxCell>
        <mxCell id="h_acLS0yPJgQxfZrvL9m-112" value="&lt;div&gt;Persona&amp;nbsp;&lt;/div&gt;&lt;div&gt;ingresando a&lt;/div&gt;&lt;div&gt;recital&lt;br&gt;&lt;/div&gt;" style="text;html=1;align=center;verticalAlign=middle;resizable=0;points=[];autosize=1;strokeColor=none;fillColor=none;" vertex="1" parent="1">
          <mxGeometry x="1210" y="370" width="100" height="60" as="geometry" />
        </mxCell>
        <mxCell id="h_acLS0yPJgQxfZrvL9m-113" value="&lt;div&gt;Persona ingresa&lt;/div&gt;&lt;div&gt;al sector 1&lt;br&gt;&lt;/div&gt;" style="text;html=1;align=center;verticalAlign=middle;resizable=0;points=[];autosize=1;strokeColor=none;fillColor=none;" vertex="1" parent="1">
          <mxGeometry x="1280" y="215" width="120" height="40" as="geometry" />
        </mxCell>
        <mxCell id="h_acLS0yPJgQxfZrvL9m-114" value="&lt;div&gt;Persona ingresa&lt;/div&gt;&lt;div&gt;al sector 2&lt;br&gt;&lt;/div&gt;" style="text;html=1;align=center;verticalAlign=middle;resizable=0;points=[];autosize=1;strokeColor=none;fillColor=none;" vertex="1" parent="1">
          <mxGeometry x="1280" y="605" width="120" height="40" as="geometry" />
        </mxCell>
      </root>
    </mxGraphModel>
  </diagram>
</mxfile>
